<?xml version="1.0" standalone="no"?>
<!DOCTYPE svg PUBLIC "-//W3C//DTD SVG 20010904//EN"
 "http://www.w3.org/TR/2001/REC-SVG-20010904/DTD/svg10.dtd">
<svg version="1.0" xmlns="http://www.w3.org/2000/svg"
 width="1000.000000pt" height="1000.000000pt" viewBox="0 0 1000.000000 1000.000000"
 preserveAspectRatio="xMidYMid meet">
<metadata>
Created by potrace 1.14, written by Peter Selinger 2001-2017
</metadata>
<g transform="translate(0.000000,1000.000000) scale(0.100000,-0.100000)"
fill="#000000" stroke="none">
<path d="M5033 9020 c-2 -3 -93 -6 -201 -7 -108 -1 -213 -4 -232 -7 -19 -2
-64 -8 -100 -11 -36 -3 -81 -10 -100 -15 -19 -4 -54 -11 -78 -14 -24 -3 -60
-10 -80 -15 -20 -5 -50 -12 -67 -15 -16 -3 -54 -12 -82 -20 -29 -8 -53 -12
-53 -9 0 3 -7 0 -15 -7 -8 -7 -15 -10 -15 -7 0 3 -44 -8 -97 -25 -54 -16 -150
-45 -213 -63 -269 -80 -528 -190 -779 -333 -75 -42 -140 -80 -146 -84 -5 -4
-48 -33 -95 -64 -207 -139 -239 -163 -405 -304 -307 -261 -513 -491 -673 -750
-25 -41 -49 -77 -52 -80 -3 -3 -34 -51 -68 -107 -80 -129 -209 -389 -272 -546
-44 -112 -135 -392 -146 -451 -2 -14 -9 -37 -14 -51 -5 -14 -7 -25 -4 -25 2 0
0 -8 -5 -17 -5 -10 -12 -31 -15 -48 -3 -16 -10 -48 -15 -70 -60 -265 -66 -298
-75 -450 -4 -55 -9 -138 -13 -185 -8 -119 -10 -414 -2 -480 4 -30 10 -86 14
-125 7 -79 10 -103 19 -160 4 -22 11 -67 16 -100 5 -33 12 -78 15 -100 4 -22
13 -67 21 -100 7 -33 16 -71 18 -85 2 -14 5 -25 6 -25 1 0 3 -7 5 -15 8 -42
56 -218 64 -235 5 -11 26 -72 46 -135 20 -63 43 -130 51 -147 8 -18 21 -50 28
-70 7 -21 28 -68 45 -104 17 -36 31 -69 31 -73 0 -3 10 -23 23 -44 13 -20 58
-104 101 -186 136 -260 316 -507 556 -759 41 -43 79 -85 83 -93 5 -8 36 -40
69 -72 87 -82 96 -90 178 -162 41 -36 77 -67 80 -70 54 -54 261 -203 348 -251
31 -18 75 -43 97 -58 22 -14 58 -35 80 -46 22 -11 42 -23 45 -27 8 -10 176
-92 295 -142 61 -26 119 -51 130 -56 11 -5 79 -31 150 -58 72 -27 139 -53 150
-57 11 -5 23 -9 27 -9 3 -1 10 -4 14 -9 4 -4 18 -7 30 -7 13 0 26 -5 29 -11 4
-5 12 -8 18 -6 7 2 26 -2 43 -9 18 -7 45 -16 60 -19 16 -2 40 -7 54 -10 14 -3
36 -7 50 -10 14 -3 36 -7 50 -10 14 -3 45 -8 70 -11 25 -3 54 -8 65 -10 11 -3
36 -7 55 -9 19 -3 46 -8 60 -12 14 -3 29 -5 33 -5 4 1 36 -2 70 -7 80 -13 128
-19 202 -26 33 -3 67 -7 75 -10 63 -16 224 -20 425 -10 77 4 172 8 210 10 39
2 90 6 115 10 126 18 184 27 275 45 148 29 146 29 194 40 24 6 55 13 70 15 46
7 167 33 212 45 24 7 51 13 59 15 8 2 49 15 90 30 41 15 80 28 85 29 6 2 23 8
38 14 16 7 30 12 33 12 2 0 32 13 67 29 34 17 139 64 232 107 362 163 544 271
677 399 73 71 169 154 243 210 49 37 126 114 225 225 41 47 91 101 110 122
136 143 288 326 316 380 8 16 19 28 24 28 6 0 10 6 10 14 0 8 4 16 8 18 14 5
173 278 218 374 43 92 126 298 130 322 1 8 6 21 10 30 4 9 8 19 9 22 1 3 4 12
7 20 4 8 18 53 33 100 15 47 30 92 33 100 3 8 6 17 7 20 1 3 4 12 8 20 9 24
49 144 51 155 1 6 5 19 9 30 3 11 9 31 11 45 3 14 13 50 21 80 18 64 76 305
80 335 1 11 8 47 14 80 17 94 21 156 21 360 0 214 -10 388 -26 490 -3 16 -7
48 -9 70 -2 22 -7 56 -9 75 -3 19 -8 58 -12 85 -3 28 -7 59 -9 70 -1 11 -6 45
-10 75 -9 80 -15 110 -27 155 -5 22 -12 51 -14 65 -6 34 -40 149 -71 240 -14
41 -33 102 -43 135 -54 178 -237 550 -387 782 -59 93 -111 173 -115 178 -91
120 -201 259 -253 318 -11 13 -38 44 -59 70 -73 87 -310 320 -406 397 -91 73
-301 223 -358 255 -15 9 -39 23 -54 33 -109 71 -363 210 -398 218 -3 0 -48 21
-100 46 -108 51 -152 71 -162 74 -5 1 -10 3 -13 4 -3 1 -9 3 -14 4 -5 0 -13 4
-17 9 -4 4 -16 7 -26 7 -11 0 -32 7 -47 15 -16 8 -39 16 -52 19 -13 2 -49 13
-79 24 -30 10 -73 24 -95 31 -22 6 -110 31 -195 55 -202 57 -290 78 -400 92
-25 3 -52 7 -60 9 -8 3 -58 7 -110 10 -52 3 -122 8 -155 11 -81 8 -245 10
-252 4z"/>
</g>
</svg>
